<!DOCTYPE svg PUBLIC "-//W3C//DTD SVG 1.1//EN" "http://www.w3.org/Graphics/SVG/1.1/DTD/svg11.dtd">
<!-- Uploaded to: SVG Repo, www.svgrepo.com, Transformed by: SVG Repo Mixer Tools -->
<svg version="1.1" id="Uploaded to svgrepo.com" xmlns="http://www.w3.org/2000/svg" xmlns:xlink="http://www.w3.org/1999/xlink" width="800px" height="800px" viewBox="0 0 32 32" xml:space="preserve" fill="#ffffff">
<g id="SVGRepo_bgCarrier" stroke-width="0"/>
<g id="SVGRepo_tracerCarrier" stroke-linecap="round" stroke-linejoin="round"/>
<g id="SVGRepo_iconCarrier"> <style type="text/css"> .stone_een{fill:#fff;} .st0{fill:#fff;} </style> <path class="stone_een" d="M9.377,25.054c0.012,0,0.024,0,0.036-0.001c0.277-0.01,0.538-0.135,0.72-0.344l6.368-7.347l6.368,7.347 c0.182,0.21,0.443,0.335,0.72,0.344c0.012,0,0.024,0.001,0.036,0.001c0.265,0,0.519-0.105,0.707-0.293l3.431-3.431 c0.196-0.196,0.302-0.465,0.292-0.743s-0.135-0.538-0.344-0.72L20.362,13.5l7.347-6.368c0.21-0.182,0.335-0.443,0.344-0.72 s-0.096-0.546-0.292-0.743L24.33,2.238c-0.188-0.188-0.442-0.293-0.707-0.293c-0.012,0-0.024,0-0.036,0.001 c-0.277,0.01-0.538,0.135-0.72,0.344L16.5,9.638l-6.368-7.347C9.95,2.081,9.69,1.956,9.412,1.946c-0.012,0-0.024-0.001-0.036-0.001 c-0.265,0-0.519,0.105-0.707,0.293L5.239,5.67C5.042,5.866,4.936,6.135,4.946,6.412s0.135,0.538,0.344,0.72l7.347,6.368 l-7.347,6.368c-0.21,0.182-0.335,0.443-0.344,0.72s0.096,0.546,0.292,0.743l3.431,3.431C8.858,24.949,9.112,25.054,9.377,25.054z M16.5,11.5c1.105,0,2,0.895,2,2s-0.895,2-2,2c-1.105,0-2-0.895-2-2S15.395,11.5,16.5,11.5z M15.5,13.5c0-0.551,0.449-1,1-1 s1,0.449,1,1s-0.449,1-1,1S15.5,14.051,15.5,13.5z M9.792,14.643l0.224-1.232c0.039-0.217,0.114-0.448,0.204-0.684l0.892,0.773 L9.792,14.643z M21.889,13.5l0.891-0.772c0.089,0.236,0.164,0.467,0.204,0.684l0.224,1.232L21.889,13.5z M25.571,27.642 C25.795,28.87,24.851,30,23.604,30H18v-5c0-0.552-0.448-1-1-1h-2c-0.552,0-1,0.448-1,1v5H9.396c-1.248,0-2.191-1.13-1.968-2.358 l0.417-2.291l0.117,0.117c0.378,0.378,0.88,0.586,1.414,0.586h0.018l0.054-0.001c0.552-0.02,1.077-0.271,1.44-0.689l5.612-6.475 l5.612,6.475c0.362,0.418,0.887,0.669,1.44,0.689l0.018,0.001l0.054,0.001c0.534,0,1.036-0.208,1.414-0.586l0.117-0.117 L25.571,27.642z M15.026,6.41c0.294-0.293,0.569-0.562,0.791-0.774c0.384-0.366,0.983-0.366,1.367,0 c0.222,0.212,0.497,0.48,0.791,0.773L16.5,8.111L15.026,6.41z M15,25h2v5h-2V25z"/> </g>
</svg>