<!DOCTYPE svg PUBLIC "-//W3C//DTD SVG 1.1//EN" "http://www.w3.org/Graphics/SVG/1.1/DTD/svg11.dtd">
<!-- Uploaded to: SVG Repo, www.svgrepo.com, Transformed by: SVG Repo Mixer Tools -->
<svg fill="#C0C0C0" version="1.1" id="Capa_1" xmlns="http://www.w3.org/2000/svg" xmlns:xlink="http://www.w3.org/1999/xlink" width="194px" height="194px" viewBox="-3.48 -3.48 38.57 38.57" xml:space="preserve" stroke="#C0C0C0" stroke-width="0.25292">
<g id="SVGRepo_bgCarrier" stroke-width="0" transform="translate(3.0034249999999982,3.0034249999999982), scale(0.81)">
<rect x="-3.48" y="-3.48" width="38.57" height="38.57" rx="19.285" fill="#047133" strokewidth="0"/>
</g>
<g id="SVGRepo_tracerCarrier" stroke-linecap="round" stroke-linejoin="round" stroke="#CCCCCC" stroke-width="0.06323"/>
<g id="SVGRepo_iconCarrier"> <g> <path d="M15.807,0C7.078,0,0,7.077,0,15.808c0,8.729,7.077,15.807,15.807,15.807s15.808-7.077,15.808-15.807S24.537,0,15.807,0z M23.546,15.808c0,4.274-3.464,7.739-7.739,7.739c-4.274,0-7.738-3.465-7.738-7.739c0-4.275,3.464-7.739,7.738-7.739 C20.082,8.069,23.546,11.533,23.546,15.808z M27.54,19.895c0.501-0.197,1.726,0.059,1.726,0.059s-0.72,1.023-1.224,1.221 c-0.389,0.154-0.842,0.133-1.092-0.051c-0.162,0.342-0.334,0.67-0.522,0.988c0.041-0.01,0.082-0.021,0.123-0.028 c0.527-0.103,1.686,0.378,1.686,0.378s-0.9,0.871-1.43,0.971c-0.416,0.08-0.859-0.031-1.07-0.262 c-0.227,0.311-0.465,0.607-0.721,0.895c0.037-0.002,0.069-0.008,0.104-0.008c0.54,0.006,1.581,0.699,1.581,0.699 s-1.047,0.678-1.591,0.676c-0.414-0.002-0.828-0.188-0.996-0.447c-0.244,0.226-0.495,0.439-0.753,0.644 c0.022,0.003,0.048-0.003,0.069-0.001c0.535,0.064,1.486,0.873,1.486,0.873s-1.119,0.555-1.654,0.489 c-0.441-0.056-0.856-0.319-0.963-0.62c-0.211,0.13-0.414,0.266-0.628,0.381c0.527,0.223,1.244,0.919,1.244,0.919 s-1.157,0.476-1.688,0.37c-0.424-0.084-0.812-0.363-0.908-0.665c-0.641,0.255-1.307,0.453-1.989,0.599 c-0.093,1.303-1.168,2.336-2.494,2.336c-1.327,0-2.401-1.033-2.494-2.336c-0.685-0.146-1.351-0.345-1.989-0.599 c-0.097,0.302-0.483,0.581-0.909,0.665c-0.532,0.104-1.688-0.37-1.688-0.37s0.717-0.696,1.244-0.919 c-0.213-0.115-0.416-0.251-0.627-0.381c-0.105,0.301-0.518,0.564-0.964,0.62C7.874,27.055,6.754,26.5,6.754,26.5 s0.95-0.809,1.487-0.873c0.025-0.002,0.046,0.004,0.069,0.001c-0.261-0.204-0.51-0.418-0.753-0.644 c-0.17,0.259-0.582,0.445-0.997,0.447c-0.54,0.002-1.59-0.676-1.59-0.676s1.041-0.693,1.58-0.699c0.033,0,0.067,0.006,0.104,0.008 c-0.255-0.286-0.493-0.584-0.721-0.895c-0.21,0.229-0.653,0.342-1.068,0.262c-0.53-0.1-1.43-0.971-1.43-0.971 s1.156-0.479,1.686-0.378c0.04,0.007,0.08,0.019,0.121,0.028c-0.189-0.318-0.36-0.646-0.521-0.988 c-0.25,0.184-0.703,0.205-1.093,0.051c-0.503-0.197-1.222-1.221-1.222-1.221s1.223-0.256,1.726-0.059 c0.04,0.019,0.074,0.047,0.115,0.064c-0.119-0.336-0.218-0.677-0.308-1.021c-0.274,0.111-0.685,0.072-1.022-0.109 c-0.475-0.256-1.07-1.354-1.07-1.354s1.244-0.111,1.722,0.146c0.046,0.024,0.083,0.063,0.127,0.092 c-0.066-0.442-0.105-0.891-0.125-1.35c-0.295,0.079-0.729-0.056-1.038-0.331c-0.404-0.356-0.73-1.564-0.73-1.564 s1.237,0.179,1.644,0.538c0.046,0.042,0.084,0.098,0.127,0.15c0.028-0.477,0.089-0.941,0.169-1.399 c-0.305,0.002-0.685-0.229-0.924-0.562c-0.313-0.44-0.357-1.689-0.357-1.689s1.164,0.454,1.479,0.895 c0.033,0.043,0.051,0.099,0.077,0.148c0.1-0.361,0.223-0.713,0.354-1.06c-0.302-0.05-0.64-0.35-0.81-0.729 c-0.224-0.492-0.025-1.728-0.025-1.728s1.057,0.671,1.277,1.164c0.025,0.055,0.034,0.114,0.052,0.173 C5.054,9.996,5.262,9.639,5.482,9.29C5.206,9.174,4.944,8.838,4.84,8.455c-0.143-0.52,0.243-1.709,0.243-1.709 s0.938,0.825,1.08,1.349C6.18,8.159,6.18,8.229,6.19,8.298C6.48,7.93,6.786,7.575,7.117,7.243C6.864,7.075,6.678,6.678,6.664,6.272 C6.642,5.735,7.292,4.663,7.292,4.663s0.724,1.021,0.745,1.56c0,0.062,0,0.124-0.008,0.187C8.3,6.185,8.578,5.971,8.868,5.771 C8.947,5.505,9.161,5.22,9.451,5.043c0.463-0.277,1.711-0.228,1.711-0.228s-0.539,1.127-1,1.404 c-0.204,0.122-0.437,0.186-0.652,0.2C9.287,6.572,9.073,6.726,8.862,6.888c0.561,0.061,1.485,0.618,1.485,0.618 S9.328,8.231,8.789,8.25C8.376,8.265,7.958,8.099,7.776,7.852C7.555,8.075,7.344,8.31,7.14,8.551 c0.568-0.056,1.567,0.265,1.567,0.265s-0.829,0.938-1.348,1.08c-0.411,0.109-0.855,0.035-1.086-0.175 c-0.163,0.254-0.317,0.515-0.462,0.785c0.538-0.165,1.628,0.007,1.628,0.007s-0.672,1.054-1.165,1.275 c-0.363,0.164-0.799,0.171-1.063,0.024c-0.089,0.232-0.171,0.464-0.243,0.703c0.489-0.27,1.607-0.315,1.607-0.315 s-0.456,1.167-0.896,1.479c-0.331,0.234-0.765,0.327-1.053,0.229c-0.054,0.312-0.097,0.629-0.125,0.948 c0.438-0.361,1.464-0.64,1.464-0.64s-0.179,1.239-0.537,1.64c-0.265,0.3-0.658,0.488-0.96,0.46c0.01,0.322,0.033,0.64,0.068,0.955 c0.319-0.463,1.305-1,1.305-1s0.109,1.246-0.146,1.719c-0.203,0.384-0.583,0.658-0.899,0.662c0.071,0.281,0.145,0.561,0.234,0.83 c0.225-0.502,1.202-1.191,1.202-1.191s0.259,1.223,0.056,1.729c-0.145,0.369-0.447,0.674-0.736,0.756 c0.118,0.248,0.241,0.496,0.374,0.732c0.127-0.529,0.96-1.394,0.96-1.394s0.479,1.153,0.377,1.683 c-0.072,0.387-0.309,0.741-0.571,0.881c0.17,0.232,0.349,0.463,0.536,0.682c0.01-0.543,0.675-1.575,0.675-1.575 s0.694,1.041,0.697,1.583c0.004,0.398-0.165,0.799-0.403,0.982c0.208,0.188,0.422,0.375,0.643,0.549 c-0.001-0.012-0.005-0.021-0.005-0.029c-0.067-0.536,0.489-1.658,0.489-1.658s0.807,0.954,0.871,1.488 c0.048,0.371-0.057,0.745-0.248,0.967c0.274,0.165,0.552,0.322,0.838,0.465c-0.024-0.076-0.054-0.154-0.069-0.234 c-0.104-0.531,0.371-1.688,0.371-1.688s0.874,0.896,0.977,1.425c0.071,0.363-0.007,0.745-0.18,0.979 c0.505,0.188,1.027,0.336,1.56,0.454c0.312-1.032,1.261-1.786,2.394-1.786c1.134,0,2.082,0.754,2.395,1.786 c0.533-0.118,1.057-0.268,1.562-0.454c-0.177-0.234-0.255-0.616-0.183-0.979c0.104-0.529,0.979-1.425,0.979-1.425 s0.475,1.157,0.368,1.688c-0.014,0.08-0.043,0.158-0.069,0.234c0.287-0.143,0.565-0.3,0.838-0.465 c-0.188-0.222-0.295-0.596-0.248-0.967c0.067-0.534,0.873-1.488,0.873-1.488s0.557,1.122,0.49,1.658 c-0.002,0.01-0.006,0.02-0.007,0.029c0.222-0.174,0.437-0.36,0.646-0.549c-0.24-0.185-0.408-0.584-0.405-0.982 c0.003-0.542,0.694-1.583,0.694-1.583s0.67,1.032,0.678,1.575c0.189-0.219,0.365-0.448,0.54-0.682 c-0.267-0.14-0.503-0.494-0.575-0.881c-0.104-0.527,0.378-1.683,0.378-1.683s0.835,0.864,0.96,1.394 c0.135-0.236,0.255-0.484,0.373-0.732c-0.29-0.082-0.591-0.387-0.736-0.756c-0.201-0.506,0.055-1.729,0.055-1.729 s0.979,0.689,1.205,1.191c0.09-0.27,0.164-0.549,0.231-0.83c-0.315-0.004-0.694-0.278-0.897-0.662 c-0.258-0.473-0.146-1.719-0.146-1.719s0.989,0.537,1.307,1c0.035-0.315,0.057-0.633,0.067-0.955 c-0.302,0.027-0.692-0.16-0.959-0.46c-0.36-0.4-0.539-1.64-0.539-1.64s1.029,0.278,1.466,0.64 c-0.027-0.319-0.072-0.637-0.127-0.948c-0.289,0.098-0.72,0.005-1.054-0.229C25.557,13.367,25.1,12.2,25.1,12.2 s1.119,0.046,1.61,0.315c-0.075-0.239-0.155-0.471-0.245-0.703c-0.265,0.146-0.699,0.14-1.063-0.024 c-0.492-0.222-1.163-1.275-1.163-1.275s1.088-0.172,1.626-0.007c-0.146-0.271-0.3-0.531-0.463-0.785 c-0.229,0.21-0.677,0.284-1.085,0.175c-0.52-0.143-1.35-1.08-1.35-1.08s1-0.321,1.566-0.265C24.33,8.31,24.12,8.074,23.898,7.852 c-0.182,0.247-0.603,0.413-1.014,0.398c-0.541-0.02-1.558-0.744-1.558-0.744s0.926-0.558,1.487-0.618 C22.6,6.726,22.387,6.572,22.165,6.42c-0.218-0.015-0.448-0.078-0.653-0.2c-0.459-0.277-1-1.404-1-1.404s1.246-0.05,1.711,0.228 c0.291,0.177,0.506,0.462,0.584,0.728c0.289,0.199,0.566,0.414,0.838,0.639c-0.006-0.063-0.01-0.125-0.008-0.187 c0.022-0.539,0.746-1.56,0.746-1.56s0.648,1.071,0.629,1.608c-0.016,0.406-0.201,0.803-0.455,0.973 c0.33,0.331,0.637,0.686,0.928,1.054c0.01-0.069,0.01-0.139,0.025-0.203c0.146-0.523,1.08-1.349,1.08-1.349 s0.389,1.189,0.244,1.709c-0.104,0.383-0.369,0.719-0.645,0.834c0.224,0.349,0.431,0.706,0.619,1.078 c0.017-0.059,0.024-0.118,0.053-0.173c0.218-0.493,1.275-1.164,1.275-1.164s0.195,1.236-0.026,1.728 c-0.169,0.379-0.505,0.679-0.81,0.729c0.133,0.347,0.256,0.698,0.356,1.06c0.026-0.05,0.044-0.105,0.078-0.148 c0.313-0.44,1.476-0.895,1.476-0.895s-0.043,1.249-0.355,1.689c-0.236,0.332-0.616,0.563-0.922,0.562 c0.08,0.458,0.141,0.923,0.168,1.399c0.043-0.053,0.08-0.108,0.129-0.15c0.404-0.359,1.641-0.538,1.641-0.538 s-0.322,1.208-0.729,1.564c-0.311,0.275-0.739,0.41-1.037,0.331c-0.019,0.459-0.061,0.907-0.125,1.351 c0.043-0.027,0.082-0.068,0.127-0.093c0.476-0.257,1.722-0.146,1.722-0.146s-0.592,1.099-1.069,1.354 c-0.342,0.184-0.75,0.221-1.023,0.109c-0.09,0.346-0.19,0.687-0.309,1.021C27.465,19.941,27.5,19.912,27.54,19.895z"/> </g> </g>
</svg>